<svg xmlns="http://www.w3.org/2000/svg" xmlns:xlink="http://www.w3.org/1999/xlink" viewBox="102 102 796 796" xmlns:v="https://vecta.io/nano"><circle fill="#382b73" cx="500" cy="500" r="398"/><circle fill="#473080" cx="500" cy="500" r="344.3"/><path fill="#382b73" d="M712.2 326.4h-1.4-87.7v-27.2c0-10.9-8.9-19.8-19.8-19.8h0c-10.9 0-19.8 8.9-19.8 19.8v27.2h-167v-27.2c0-10.9-8.9-19.8-19.8-19.8s-19.8 8.9-19.8 19.8v27.2h-87.7-1.4a14.98 14.98 0 0 0-15 15v1.4 56.9 8.7 5.9 266c0 9 7.3 16.4 16.4 16.4h421.7c9 0 16.4-7.3 16.4-16.4v-266-5.9-8.7-56.9-1.4c-.1-8.3-6.8-15-15.1-15z"/><path fill="#fff" d="M710.9 676.6H289.1c-9 0-16.4-7.3-16.4-16.4V322.7c0-9 7.3-16.4 16.4-16.4h421.7c9 0 16.4 7.3 16.4 16.4v337.5c0 9.1-7.3 16.4-16.3 16.4z"/><path fill="#d1d3d4" d="M710.9 663.3H289.1c-9 0-16.4-7.3-16.4-16.4v13.3c0 9 7.3 16.4 16.4 16.4h421.7c9 0 16.4-7.3 16.4-16.4v-13.3c0 9-7.3 16.4-16.3 16.4z"/><path fill="#2dbba5" d="M727.2,388.3v-66.9c0-8.3-6.7-15-15-15H287.8c-8.3,0-15,6.7-15,15v66.9H727.2z"/><g fill="#00a58c"><path d="M272.8 379.6h454.5v14.6H272.8z"/><circle cx="396.7" cy="340.9" r="28.4"/><circle cx="603.3" cy="340.9" r="28.4"/></g><path fill="#fede3a" d="M396.7 359.9h0c-10.9 0-19.8-8.9-19.8-19.8v-60.9c0-10.9 8.9-19.8 19.8-19.8h0c10.9 0 19.8 8.9 19.8 19.8v60.9c0 10.9-8.9 19.8-19.8 19.8z"/><path fill="#e7ad27" d="M396.7 326.9c-10.9 0-19.8-8.9-19.8-19.8v33c0 10.9 8.9 19.8 19.8 19.8s19.8-8.9 19.8-19.8v-33c0 10.9-8.9 19.8-19.8 19.8z"/><path fill="#fede3a" d="M603.3 359.9h0c-10.9 0-19.8-8.9-19.8-19.8v-60.9c0-10.9 8.9-19.8 19.8-19.8h0c10.9 0 19.8 8.9 19.8 19.8v60.9c0 10.9-8.8 19.8-19.8 19.8z"/><path fill="#e7ad27" d="M603.3 326.9c-10.9 0-19.8-8.9-19.8-19.8v33c0 10.9 8.9 19.8 19.8 19.8s19.8-8.9 19.8-19.8v-33c0 10.9-8.8 19.8-19.8 19.8z"/><g fill="#d1d3d4"><use xlink:href="#B"/><use xlink:href="#C"/><use xlink:href="#C" x="85.8"/><use xlink:href="#B" x="257.5"/><use xlink:href="#D"/><use xlink:href="#E"/><use xlink:href="#D" x="-257.5"/><use xlink:href="#E" x="171.7"/><use xlink:href="#E" x="257.5"/><use xlink:href="#C" x="-171.7" y="159.7"/><use xlink:href="#B" y="159.7"/><use xlink:href="#C" y="159.7"/><use xlink:href="#C" x="85.8" y="159.7"/></g><g fill="#fede3a"><use xlink:href="#B" y="-10"/><use xlink:href="#C" y="-10"/><use xlink:href="#C" x="85.8" y="-10"/><use xlink:href="#B" x="257.5" y="-10"/><use xlink:href="#D" y="-10"/></g><use xlink:href="#E" y="-10" fill="#ef5a9d"/><g fill="#fede3a"><use xlink:href="#D" x="-257.5" y="-10"/><use xlink:href="#E" x="171.7" y="-10"/><use xlink:href="#E" x="257.5" y="-10"/></g><use xlink:href="#C" x="-171.7" y="149.7" fill="#ef5a9d"/><g fill="#fede3a"><use xlink:href="#B" y="149.7"/><use xlink:href="#C" y="149.7"/><use xlink:href="#C" x="85.8" y="149.7"/></g><g fill="#e7ad27"><use xlink:href="#F"/><use xlink:href="#G"/><use xlink:href="#G" x="85.8"/><use xlink:href="#F" x="257.5"/><use xlink:href="#H"/><use xlink:href="#I"/><use xlink:href="#G" x="85.8" y="159.7"/><use xlink:href="#G" y="159.7"/><use xlink:href="#F" y="159.7"/></g><use xlink:href="#G" x="-171.7" y="159.7" fill="#a72973"/><g fill="#e7ad27"><use xlink:href="#I" x="-85.8"/><use xlink:href="#H" x="-257.5"/></g><use xlink:href="#I" x="-257.5" fill="#a72973"/><defs ><path id="B" d="M430.7 484.9h-33a14.98 14.98 0 0 1-15-15v-33a14.98 14.98 0 0 1 15-15h33a14.98 14.98 0 0 1 15 15v33c0 8.3-6.8 15-15 15z"/><path id="C" d="M516.5 484.9h-33a14.98 14.98 0 0 1-15-15v-33a14.98 14.98 0 0 1 15-15h33a14.98 14.98 0 0 1 15 15v33a14.98 14.98 0 0 1-15 15z"/><path id="D" d="M688.2 564.8h-33a14.98 14.98 0 0 1-15-15v-33a14.98 14.98 0 0 1 15-15h33a14.98 14.98 0 0 1 15 15v33c0 8.2-6.8 15-15 15z"/><path id="E" d="M344.8 564.8h-33a14.98 14.98 0 0 1-15-15v-33a14.98 14.98 0 0 1 15-15h33a14.98 14.98 0 0 1 15 15v33c0 8.2-6.7 15-15 15z"/><path id="F" d="M430.7 464.4h-33a14.98 14.98 0 0 1-15-15v10.5a14.98 14.98 0 0 0 15 15h33a14.98 14.98 0 0 0 15-15v-10.5c0 8.3-6.8 15-15 15z"/><path id="G" d="M516.5 464.4h-33a14.98 14.98 0 0 1-15-15v10.5a14.98 14.98 0 0 0 15 15h33a14.98 14.98 0 0 0 15-15v-10.5a14.98 14.98 0 0 1-15 15z"/><path id="H" d="M688.2 544.3h-33a14.98 14.98 0 0 1-15-15v10.5a14.98 14.98 0 0 0 15 15h33a14.98 14.98 0 0 0 15-15v-10.5c0 8.2-6.8 15-15 15z"/><path id="I" d="M602.3 544.3h-33a14.98 14.98 0 0 1-15-15v10.5a14.98 14.98 0 0 0 15 15h33a14.98 14.98 0 0 0 15-15v-10.5c0 8.2-6.7 15-15 15z"/></defs></svg>