<?xml version="1.0" standalone="no"?>
<!DOCTYPE svg PUBLIC "-//W3C//DTD SVG 20010904//EN"
 "http://www.w3.org/TR/2001/REC-SVG-20010904/DTD/svg10.dtd">
<svg version="1.0" xmlns="http://www.w3.org/2000/svg"
 width="700.000000pt" height="700.000000pt" viewBox="0 0 700.000000 700.000000"
 preserveAspectRatio="xMidYMid meet">
<metadata>
Created by potrace 1.14, written by Peter Selinger 2001-2017
</metadata>
<g transform="translate(0.000000,700.000000) scale(0.100000,-0.100000)"
fill="#000000" stroke="none">
<path d="M2100 5950 l0 -350 -303 0 c-335 0 -376 -5 -476 -62 -119 -67 -231
-213 -260 -338 -7 -30 -11 -702 -11 -2050 0 -2176 -3 -2043 56 -2165 35 -73
138 -179 215 -223 117 -66 -32 -62 2179 -62 2211 0 2062 -4 2179 62 119 67
231 213 260 338 15 63 15 4037 0 4100 -29 125 -141 271 -260 338 -100 57 -141
62 -476 62 l-303 0 0 350 0 350 -265 0 -265 0 0 -350 0 -350 -870 0 -870 0 0
350 0 350 -265 0 -265 0 0 -350z m3320 -1225 l0 -345 -1920 0 -1920 0 0 345 0
345 1920 0 1920 0 0 -345z m0 -2185 l0 -1310 -1920 0 -1920 0 0 1310 0 1310
1920 0 1920 0 0 -1310z"/>
<path d="M4012 3130 c-122 -32 -206 -82 -307 -184 -148 -148 -205 -287 -205
-496 0 -209 57 -348 205 -495 147 -148 286 -205 495 -205 209 0 348 57 495
205 148 147 205 286 205 495 0 210 -58 349 -204 495 -104 103 -189 154 -312
185 -103 27 -270 26 -372 0z"/>
</g>
</svg>
